<?xml version="1.0" encoding="utf-8"?>
<!-- Generator: Adobe Illustrator 17.1.0, SVG Export Plug-In . SVG Version: 6.00 Build 0)  -->
<!DOCTYPE svg PUBLIC "-//W3C//DTD SVG 1.1//EN" "http://www.w3.org/Graphics/SVG/1.1/DTD/svg11.dtd">
<svg version="1.1" id="Layer_1" xmlns="http://www.w3.org/2000/svg" xmlns:xlink="http://www.w3.org/1999/xlink" x="0px" y="0px"
	 viewBox="0 0 377.7 62.2" enable-background="new 0 0 377.7 62.2" xml:space="preserve">
<path d="M377.7,62.2V31.3h-19.8v9.5h-9V38h-7.3v3.3h-11.7V30.5h-6.2V19.2h-14.8v5.2H280v16.1h-10V21.8h1.9v-0.2h0.4V20h-0.4v-1.3
	h-13.6v-6.8h-11.5v6.8h-25.2v3.2h2.7v18.6h-7.8V22.2l-2.5-0.3V11l-0.7-0.4V0h-8.5v2.8h-14.7v0.1l-0.3-0.2V11h-2.7v10.5v18.9H185
	V20.8h-10.8v-2.5h-7v-4h-5.3H153v-2.2h-2.3v0.2h-1v19.3h-2.5V20H139v6.7c0,0-4.3-2.7-7,0.2h-2v-9h-1.8V13H125v-1.5h-7.7V13H109v3.8
	h-4.2v6.8H89.2v-3h-5.8v-3.2H74v6.2H58.2v18.2h-22v-3.3h-7.3v2.8h-9v-9.5H0v30.3H377.7z"/>
</svg>
