<?xml version="1.0" encoding="utf-8"?>
<!-- Generator: Adobe Illustrator 19.1.0, SVG Export Plug-In . SVG Version: 6.00 Build 0)  -->
<!DOCTYPE svg PUBLIC "-//W3C//DTD SVG 1.1//EN" "http://www.w3.org/Graphics/SVG/1.1/DTD/svg11.dtd">
<svg version="1.1" id="Layer_1" xmlns="http://www.w3.org/2000/svg" xmlns:xlink="http://www.w3.org/1999/xlink" x="0px" y="0px"
	 viewBox="0 0 698.8 198.3" enable-background="new 0 0 698.8 198.3" xml:space="preserve">
<g>
	<path fill-rule="evenodd" clip-rule="evenodd" d="M306.7,0L185.9,0c-0.2,0-0.3,0.1-0.3,0.3l-0.1,56.5c0,0.2,0.1,0.3,0.3,0.3h7.7
		c0.3,0,0.4,0.3,0.2,0.5c-9.1,7.8-14.1,12.1-18.7,16c-0.1,0.1-0.3,0.1-0.4,0c-4.6-4-9.4-8.3-18.3-16.1c-0.2-0.2-0.1-0.5,0.2-0.5
		c2.6,0,10.7,0,12.4,0c0.2,0,0.3-0.1,0.3-0.3L169,0.3c0-0.2-0.1-0.3-0.3-0.3L0.3,0.1C0.1,0.1,0,0.2,0,0.4l0.1,56.5
		c0,0.2,0.1,0.3,0.3,0.3c2.9,0,27.1,0,32.6,0c0.1,0,0.1,0,0.2,0.1c5.7,5,77,66.9,83.8,72.8c0.1,0.1,0.1,0.1,0.1,0.2
		c0,2.2,0,3.4,0,6.6c0,0.2-0.1,0.3-0.3,0.3c-8.3,0-26.7,0-29.2,0c-0.2,0-0.3,0.1-0.3,0.3l0,60.6c0,0.2,0.1,0.3,0.3,0.3l141.7,0
		c0.2,0,0.3-0.1,0.3-0.3l0-60.5c0-0.2-0.1-0.3-0.3-0.3c-2.4,0-20.3-0.1-28.4-0.1c-0.2,0-0.3-0.1-0.3-0.3c0-3.8,0-5.3,0-7.8
		c0-0.1,0-0.2,0.1-0.2c6.9-5.9,77.8-66.7,83.5-71.6c0.1,0,0.1-0.1,0.2-0.1c5.4,0,29.3,0,32.1,0c0.2,0,0.3-0.1,0.3-0.3l0-56.5
		c0-0.2-0.1-0.3-0.3-0.3L306.7,0z"/>
	<path fill-rule="evenodd" clip-rule="evenodd" fill="#FFFFFF" d="M10.5,47l26.2,0c0.1,0,0.1,0,0.2,0.1l90.1,78.3
		c0.1,0.1,0.1,0.1,0.1,0.2l0,21.4c0,0.2-0.1,0.3-0.3,0.3l-29.1,0c-0.2,0-0.3,0.1-0.3,0.3l0,40.3c0,0.2,0.1,0.3,0.3,0.3l121.5,0
		c0.2,0,0.3-0.1,0.3-0.3l0-40.3c0-0.2-0.1-0.3-0.3-0.3l-28.4-0.1c-0.2,0-0.3-0.1-0.3-0.3l0-22.6c0-0.1,0-0.2,0.1-0.2l89.8-77
		c0.1,0,0.1-0.1,0.2-0.1h25.8c0.2,0,0.3-0.1,0.3-0.3l0-36.3c0-0.2-0.1-0.3-0.3-0.3l-110.4,0c-0.2,0-0.3,0.1-0.3,0.3l-0.1,36.3
		c0,0.2,0.1,0.3,0.3,0.3h24.9c0.3,0,0.4,0.3,0.2,0.5l-46.1,39.6c-0.1,0.1-0.3,0.1-0.4,0l-45-39.6c-0.2-0.2-0.1-0.5,0.2-0.5l29,0
		c0.2,0,0.3-0.1,0.3-0.3l-0.1-36.2c0-0.2-0.1-0.3-0.3-0.3l-148.2,0c-0.2,0-0.3,0.1-0.3,0.3l0.1,36.3C10.2,46.9,10.4,47,10.5,47z"/>
	<path fill-rule="evenodd" clip-rule="evenodd" fill="#A71E31" d="M201.2,15.9c0,6.5,0,18.8-0.1,25.4c0,0.2,0.1,0.3,0.3,0.3
		c6.6,0,29.6,0,34.1,0c0.3,0,0.4,0.3,0.2,0.5l-60.9,52.3c-0.1,0.1-0.3,0.1-0.4,0L115.1,42c-0.2-0.2-0.1-0.5,0.2-0.5
		c4.8,0,30.9,0,38,0c0.2,0,0.3-0.1,0.3-0.3c0-6.5,0-18.8-0.1-25.3c0-0.2-0.1-0.3-0.3-0.3c-11.4,0-125.8,0-137.3,0
		c-0.2,0-0.3,0.1-0.3,0.3c0,6.5,0,18.8,0.1,25.4c0,0.2,0.1,0.3,0.3,0.3c6.7,0,21.5,0,22.9,0c0.1,0,0.1,0,0.2,0.1l93.6,81.3
		c0.1,0.1,0.1,0.1,0.1,0.2l0,29.3c0,0.2-0.1,0.3-0.3,0.3c-2.6,0-22.1,0-29.2,0c-0.2,0-0.3,0.1-0.3,0.3c0,7,0,22.4,0,29.4
		c0,0.2,0.1,0.3,0.3,0.3c10.8,0,99.8,0,110.5,0c0.2,0,0.3-0.1,0.3-0.3c0-7,0-22.4,0-29.4c0-0.2-0.1-0.3-0.3-0.3
		c-6.9,0-25.9-0.1-28.4-0.1c-0.2,0-0.3-0.1-0.3-0.3l0-30.5c0-0.1,0-0.2,0.1-0.2l93.3-80c0.1,0,0.1-0.1,0.2-0.1c1.3,0,15.7,0,22.3,0
		c0.2,0,0.3-0.1,0.3-0.3c0-6.5,0-18.8,0-25.4c0-0.2-0.1-0.3-0.3-0.3c-10.5,0-89,0-99.5,0C201.3,15.6,201.2,15.7,201.2,15.9z"/>
</g>
<g>
	<path fill="#FFFFFF" d="M308.5,129.9c0-1.1,0.3-2.9,1-5.3c0.7-0.3,1.6-1,2.8-2.1c0.1-0.4,0.1-0.6,0.2-0.9c0-0.2,0.1-0.4,0.2-0.7
		c0.1-0.2,0.2-0.5,0.3-0.8c0.2-0.3,0.3-0.6,0.5-0.9c0.1-0.3,0.4-0.7,0.8-1.2c0.4-0.6,0.7-1.1,1-1.6c0.3-0.5,0.8-1.2,1.4-2.2
		c0.6-1,1.3-2,1.9-2.9c0.7-0.5,1.4-1.5,2.3-2.8c0.8-1.4,2-2.6,3.4-3.9c3.1-4.2,5.7-7.3,7.8-9.3c2.1-2,3.9-3,5.6-3
		c1.1,0,2.6,0.8,4.3,2.5c0.7,0,1.2,0.1,1.6,0.4c0.4,0.2,0.9,0.6,1.7,1.1c0.8,0.5,1.9,0.9,3.3,1.3l1.6,0.7c1.9,1.1,2.9,2.3,2.9,3.6
		c0,0.1-0.1,0.4-0.4,1c-0.3,0.6-0.4,1-0.4,1.2c0,0.2-0.1,0.7-0.2,1.4c-0.1,0.7-0.2,1.3-0.2,1.8c-0.5,0.5-0.9,1.4-1.5,3
		c-0.5,1.5-1.1,3.4-1.8,5.6c-0.7,2.2-1.3,4-1.8,5.3c-0.7,1.6-1.3,4.3-1.9,8.1l-1.3,8.3c-0.1,0.3-0.1,0.9-0.1,1.6
		c0,1,0.1,1.8,0.2,2.4c-0.3-0.5-1-1.3-2.2-2.4c-1.1-1-1.8-2-2.1-2.8c-0.3-0.9-0.5-2.2-0.5-3.9c0-2.6,0.2-4.6,0.7-5.9
		c-0.3-0.4-0.6-0.6-0.9-0.6c-0.2,0-0.5,0.1-0.7,0.2c-0.2,0.1-0.6,0.4-1,0.9c-0.4,0.4-0.9,0.9-1.4,1.4c-0.5,0.5-1.3,1.2-2.3,2.2
		c-1,0.9-2.1,1.9-3.3,2.9c-0.3,1-1.1,1.9-2.2,2.7s-3.5,2.1-7.1,4c-1.3,1.5-2.7,2.3-4.1,2.3c-0.1,0-0.4-0.1-0.9-0.4
		c-0.5-0.3-1-0.7-1.7-1.4c-0.6-0.6-1.1-1.3-1.3-2.1c-0.3-1-1-2.3-2-4C309,132.8,308.5,131.3,308.5,129.9z M315.8,131.1
		c0,0.5,0.2,0.8,0.7,0.8c0.5,0,1.1-0.3,1.8-1c0.8-0.7,1.8-1.6,3.2-2.9c1.4-1.3,2.6-2.4,3.7-3.3c0.2-0.3,0.4-0.6,0.7-1
		c0.3-0.3,0.7-0.7,1.1-1.1c0.4-0.4,1.1-1.1,2.1-2.1c1-1,2.1-2,3.2-3.2c0-0.5,0.6-1.8,1.9-3.7c1.3-2,2.3-3.3,3.2-3.9
		c1.3-3,2-4.5,2.1-4.5c0-0.8-0.3-1.2-1-1.2c-0.6,0-1.6,0.7-3.1,2c-1.1,0.7-2.4,1.9-4.1,3.6c-1.6,1.8-4.6,5.1-8.9,10.2
		c-0.1,0.1-0.4,0.6-1,1.4c-0.6,0.8-1.1,1.7-1.7,2.6c-0.6,0.9-1.1,1.8-1.8,2.8c-0.6,1-1.1,1.9-1.5,2.7
		C316,130.2,315.8,130.8,315.8,131.1z M340.3,103.8c0.2,0.2,0.4,0.3,0.6,0.4c0,0,0.1-0.3,0.3-0.7c0,0-0.2,0.1-0.5,0.2
		C340.5,103.7,340.4,103.8,340.3,103.8z"/>
	<path fill="#FFFFFF" d="M355.1,128.6c0.3-1.1,0.6-2.1,0.7-2.7c0.1-0.5,0.2-1.2,0.4-2.1c0.2-0.9,0.3-1.9,0.5-2.7
		c0.2-0.9,0.3-1.7,0.5-2.5v-1.9c0-0.2,0.3-0.8,0.8-1.7c0.5-0.9,0.8-1.7,0.9-2.3c0-0.4,0.2-1.5,0.6-3.3c0.1-0.3,0-0.8,0-1.4
		c-0.1-0.6-0.1-1.1,0-1.3c0.1-0.5,0.4-1.1,0.9-1.9c0.5-0.8,0.8-1.3,1-1.7c0.4-0.9,1.1-2.2,2-3.9c0.2-0.3,0.4-0.7,0.6-1.1
		c0.2-0.5,0.4-0.8,0.6-1.1c0.1-0.3,0.3-0.6,0.5-0.9c0.2-0.3,0.4-0.6,0.6-0.8c1-1,1.7-1.5,2.2-1.5c0.3,0,0.5,0.5,0.6,1.5
		c0.2,1.4,0.2,2.4,0.2,3.1c0,0.2,0,0.4,0,0.6c-0.2,0.8-0.4,1.6-0.6,2.3c-0.2,0.8-0.4,1.5-0.6,2.2c-0.2,0.7-0.4,1.4-0.7,2.2
		c-0.3,0.7-0.5,1.5-0.6,2.3c-0.2,0.7-0.2,1.4,0,2.4c0.2,0.9,0.3,1.4,0.3,1.4c0,0.1,0,0.2,0,0.4c0,0.1,0,0.2,0,0.3c0,0.1,0,0.2,0,0.3
		c0,0.1,0,0.1,0.1,0.2c0,0,0.1,0,0.2,0c0.3,0,0.9-0.4,1.8-1.3c0.4-0.4,1.5-1.8,3.5-4.1c0.7-0.9,1.5-2.1,2.4-3.7
		c1-1.6,1.7-2.6,2.2-3.2c0.6-0.7,1.2-1.4,2-2.2c0.8-0.8,1.2-1.2,1.4-1.4c0.3-0.4,0.8-0.9,1.5-1.6c0.7-0.7,1.2-1.3,1.6-1.7
		c0.4-0.4,0.8-0.7,1.1-1c1.3-0.9,2.3-1.4,3.2-1.4c0.1,0,0.2,0.1,0.2,0.2c0,0.1,0.1,0.3,0.1,0.5c0,0.2,0.1,0.4,0.1,0.5
		c0,0.1,0.1,0.3,0.2,0.5c0.1,0.2,0.2,0.4,0.3,0.6c0.1,0.2,0.1,0.3,0,0.5c-0.3,1.2-0.6,2.4-0.8,3.6c-0.2,1.2-0.5,2.3-0.8,3.5
		c-0.4,1.4-0.9,3.7-1.6,7.1c0,0.2-0.1,0.6-0.3,1.2c-0.2,0.7-0.3,1.2-0.4,1.6c-0.1,0.4-0.1,0.9,0,1.3c0,0.5,0.1,0.9,0.2,1.4
		c0.1,0.5,0.3,1.1,0.5,1.7c0.2,0.6,0.3,1.1,0.4,1.5c0,0.1,0.2,1.1,0.7,3c0.5,2,0.8,3.4,1,4.3c0.1,0.7,0.2,1.5,0.3,2.2
		c0.1,0.8,0.1,1.4,0.1,1.8c0,0.4,0,0.7,0.1,0.7c0.7,1.3,1.2,2.1,1.7,2.5c0.2,0.1,0.4,0.4,0.5,0.8c0.1,0.4,0.4,0.6,0.7,0.6
		c0.2,0,0.4-0.1,0.8-0.3c0.4-0.2,0.7-0.4,0.9-0.4c0.2-0.1,0.6-0.1,1.2-0.2c0.6,0,1.1-0.1,1.4-0.2c0.4-0.1,0.7-0.3,1-0.5
		c0.3-0.2,0.6-0.4,0.8-0.4c0.3-0.1,0.6,0,1,0.1c0.4,0.2,0.7,0.2,0.8,0.2c0.1,0,0.3-0.1,0.6-0.3c0.3-0.2,0.4-0.3,0.5-0.2
		c0,0,0,0.1,0,0.1c0,0.1,0,0.2,0,0.3c-0.1,0.3-0.1,0.4-0.1,0.5c0,0.1,0,0.3,0,0.5c0,0.2-0.1,0.4-0.1,0.6c0,0.2-0.1,0.3-0.1,0.5
		c-0.1,0.2-0.2,0.4-0.3,0.5c-0.1,0.1-0.2,0.3-0.4,0.5c-0.2,0.2-0.3,0.4-0.4,0.5c-0.1,0.1-0.3,0.3-0.5,0.5c-0.2,0.2-0.5,0.4-0.7,0.6
		c-0.4,0.3-0.8,0.6-1.1,1c-0.3,0.4-0.7,0.7-1.1,1c-0.4,0.3-0.8,0.6-1.2,0.9c-0.4,0.3-0.8,0.6-1.2,0.9c-0.2,0.2-0.5,0.3-0.8,0.3
		c-0.3,0-0.6,0.1-0.8,0.2c-0.2,0.1-0.5,0.2-0.9,0.4c-0.4,0.2-0.8,0.4-1.2,0.5c-0.3,0.1-0.8,0.2-1.5,0.4c-0.7,0.2-1.1,0.3-1.4,0.4
		c-0.2,0-0.6,0.1-1,0.2c-0.5,0.1-0.7,0.1-0.9,0.1c-0.9,0-1.9-0.5-3-1.4c-0.2-0.1-0.3-0.2-0.5-0.4c-0.2-0.2-0.3-0.3-0.4-0.4
		c-0.1-0.1-0.2-0.3-0.4-0.6c-0.2-0.3-0.3-0.5-0.4-0.6c-0.1-0.1-0.2-0.4-0.4-0.7c-0.2-0.4-0.4-0.6-0.4-0.7c-1.2-1.8-1.9-3.3-2.2-4.3
		c-0.1-0.3-0.2-0.8-0.3-1.4c-0.2-0.7-0.3-1.2-0.3-1.7c-0.1-0.5-0.1-0.9,0-1.3c0-0.4,0-0.6,0.1-0.8l-0.4-1.2l0.2-0.5l-0.2-1.4v-5.5
		l-0.5-0.3l0.8-2l-0.1-0.8l0.3-0.4v-3l0.1,1.4c0-0.2,0-0.7,0-1.3c0-0.7,0-1.2,0-1.7c0-0.4,0.2-0.9,0.5-1.4c0.3-0.6,0.4-0.9,0.4-1.1
		c-0.1-0.3-0.4-0.5-1-0.5c-0.7,0-1.4,0.5-2.1,1.4c-1,1.4-1.6,2.2-1.8,2.5l-2.7,5.3l-0.2,0.9l-1.2,2.2v0.8l-0.6,0.8l-1.4,3l-1.1,1.5
		l-0.8,0.2l-0.2,0.2v0.3h-0.3c-0.3,0.3-0.4,0.4-0.4,0.5c-2,2.9-3.3,4.7-4,5.4c-1,1-2.1,1.5-3.2,1.5c-0.2,0-0.4-0.1-0.4-0.2
		c-0.1-0.1-0.2-0.5-0.3-1c0-0.1-0.2-0.5-0.5-1.2c-0.3-0.6-0.4-1-0.4-1.3C354.4,131,354.6,130.1,355.1,128.6z"/>
	<path fill="#FFFFFF" d="M395.6,129.8c0-2.8,0.8-4.9,2.3-6.2c0.3-2.3,2.3-6,6.1-10.9c0.1-0.1,0.3-0.1,0.5-0.2
		c0.3-0.1,0.5-0.2,0.7-0.3c0.2-0.1,0.5-0.5,0.9-1.1c0.4-0.6,0.8-1.4,1.3-2.4c0.6-0.3,1.1-0.6,1.6-0.9c0.4-0.4,0.8-0.7,1.1-1.2
		c0.3-0.4,0.8-1.1,1.6-2c0.8-0.9,1.7-1.8,2.7-2.8c1-0.5,2.4-1.7,4.2-3.6c-0.3,0-0.4,0-0.4-0.1c0-0.2,0.9-0.5,2.6-0.9
		c1.8-0.5,2.7-0.7,2.9-0.7c0.8,0,2.1,0.2,3.9,0.7c0.5,0.5,1,0.8,1.7,1.1c0.7,0.3,1.9,0.6,3.8,1c0.2-0.4,0.7-1.6,1.7-3.8
		c0.9-2.1,2.4-5.8,4.4-10.9c0-0.2,0.1-0.6,0.3-1.4c0.2-0.7,0.3-1.4,0.5-1.9c0.1-0.5,0.3-1,0.6-1.7c0.2-0.6,0.5-1.1,0.8-1.4
		c0.3-0.3,0.7-0.5,1.1-0.5c0.1,0,0.5,0.1,1.2,0.4c0.7,0.3,1.1,0.4,1.2,0.4c0.3,0,0.5-0.1,0.6-0.2c0.4,0.7,1.1,1.4,2.1,2
		c1,0.7,1.8,1,2.4,1h0.1c-0.2,1.8-0.4,3.1-0.6,3.8c-0.1,0.7-0.6,2.1-1.5,4.2s-2.2,5.1-4.1,9.1c-1.9,4.1-3.4,7.1-4.5,9.1
		c-1.1,2-2.2,3.7-3.1,5.1c-0.9,1.4-1.8,2.8-2.6,4.2c-0.1,1-0.4,2.2-0.7,3.3c-0.3,1.2-0.6,2.1-0.9,2.9c-0.3,0.7-0.4,1.1-0.4,1.2
		c0,3.4,1.7,5.1,5,5.1c0.2,0,0.5,0,1.1-0.1c0.6-0.1,0.9-0.1,1.1-0.1c0.7,0,1.3,0.1,1.6,0.4c0.6,0,1.2-0.2,1.7-0.7
		c0,0.6,0.1,1.5,0.4,2.7c-0.3-0.1-0.5-0.3-0.7-0.4c0,0.2-0.1,0.5-0.3,0.8c-1.6,0.6-2.9,1.1-4,1.4c-1,0.3-1.7,0.5-2,0.5
		c-0.3,0-0.8,0-1.4,0c-0.6,0-1-0.1-1.3-0.1c-0.6,0-1-0.1-1.4-0.2c-0.4-0.2-0.7-0.4-1-0.6c-0.3-0.2-0.6-0.7-1-1.4
		c-0.4-0.7-0.7-1.3-1-1.9c-0.3-0.6-0.7-1.5-1.3-2.9c-0.6-1.3-1.2-2.6-1.7-3.7c-0.1-0.1-0.2-0.1-0.5-0.1c-0.4,0-0.7,0.2-1,0.5
		c-0.4,0.4-1.3,1.2-2.6,2.4c-1.3,1.2-2.3,2.1-3,2.8c-0.7,0.7-1.7,1.5-2.9,2.5c-1.2,1-2.4,1.9-3.6,2.7c-1.2,0.8-2.5,1.6-3.8,2.3
		c-0.1,0-0.2,0-0.4,0c-0.2,0-0.5,0.1-0.8,0.4c-0.3,0.3-0.8,0.8-1.4,1.6h-0.5h-0.3c-0.2,0-0.4,0-0.6,0c-0.2,0-0.4,0-0.7,0
		c-0.3,0-0.6,0-0.8-0.1c-0.2,0-0.5-0.1-0.8-0.1c-0.3-0.1-0.6-0.1-0.9-0.2c-0.3-0.1-0.5-0.2-0.9-0.4c-0.3-0.2-0.6-0.3-0.8-0.5
		c-0.2-0.2-0.4-0.4-0.7-0.7c-0.2-0.3-0.4-0.6-0.5-0.9C396.5,132.9,395.6,131.1,395.6,129.8z M400.9,132.3c0,0.2,0.1,0.4,0.2,0.7
		l0.2,0.4h0.6c0.7-0.3,1.4-0.6,2.1-0.8c0.7-0.3,1.1-0.5,1.5-0.6c0.3-0.1,0.7-0.2,0.9-0.3c0.3-0.1,0.6-0.2,0.9-0.4
		c0.3-0.2,0.5-0.3,0.8-0.5c0.2-0.1,0.6-0.4,1.1-0.8c0.6-0.4,1.1-0.8,1.5-1.2c0.5-0.4,1.2-1,2.3-1.8c1.1-0.9,2.2-1.7,3.3-2.5
		c0.3-0.4,0.7-0.9,1.2-1.5l1.5-1c0.2-0.4,0.5-0.8,1-1.3c0.6-0.2,1.1-0.5,1.5-0.9c0.4-0.4,1-1.1,1.8-2.1c0.8-1,1.6-1.9,2.4-2.8
		c0.9-0.5,1.6-1.2,2.1-2.2c0.5-1,0.9-2.8,1.3-5.3c0-0.1,0.1-0.4,0.3-1c0.2-0.5,0.4-1,0.5-1.4c0.2-0.4,0.2-0.7,0.2-0.7v-0.7
		c-0.7-0.3-1-0.5-1.1-0.5c-0.4,0-1,0.2-1.6,0.6l-1.2,0.8c-1.4,0.5-4.7,3.1-9.9,7.7c-0.4,0.4-0.9,0.9-1.5,1.7
		c-0.6,0.7-1.1,1.2-1.6,1.5c-2.6,2.6-4.9,5.2-6.9,7.8c-2,2.7-3.4,4.7-4.3,6.2C401.3,130.9,400.9,131.9,400.9,132.3z"/>
	<path fill="#FFFFFF" d="M468.8,166.7c0-0.3,0.1-0.9,0.3-1.8c0.2-0.9,0.4-1.5,0.5-1.8c0.2-0.6,0.4-1.4,0.5-2.5
		c0.1-1.1,0.3-2.4,0.5-4.1c0.2-1.7,0.4-3.2,0.6-4.5c-0.1-0.3-0.1-0.9-0.1-1.9c2.3-9.8,6.1-21.7,11.2-35.8c0.7-1.2,1.6-3.5,2.6-6.8
		c0.4-0.4,0.8-1.1,1.3-2.1c0.5-1,0.7-2.1,0.7-3.4c0-0.1-0.1-0.1-0.4-0.1c0,0-0.1,0-0.2,0c-0.1,0.1-0.3,0.2-0.7,0.5
		c-0.3,0.3-0.7,0.5-1,0.7c-1.4,1-2.8,2-4.3,2.7c-1.4,0.8-2.5,1.3-3.2,1.6c-0.7,0.3-1.1,0.4-1.2,0.4c-0.9,0-1.3-1.3-1.3-3.9
		c0-1.1,0.2-2.2,0.6-3.1c0.4-0.9,0.7-1.6,1.1-2c0.3-0.4,1-1,1.9-1.9c1-0.9,1.5-1.4,1.7-1.6c5.8-1.9,8.8-2.9,9-2.9
		c0.1,0,0.2,0,0.4,0.1c0.2,0.1,0.3,0.1,0.4,0.1c0.1,0,0.6-0.2,1.3-0.7c0.8-0.5,1.2-0.7,1.4-0.7c0.1,0,0.3,0.1,0.5,0.2
		c0.2,0.2,0.4,0.2,0.5,0.2c0.1,0,0.4,0,0.7-0.1c0.4-0.1,0.6-0.1,0.7-0.1c1.1,0,2.3,0.1,3.8,0.2c1.5,0.1,3.4,0.6,5.9,1.4
		c2.5,0.8,4.4,1.8,5.8,3.1c1.6,0,2.9,0.8,4,2.4c1.1,1.6,1.8,3.4,2,5.3c0,0.1,0.1,0.3,0.3,0.7c0.2,0.3,0.3,0.6,0.3,0.7
		c0,0.2-0.2,0.7-0.6,1.7c-0.4,1-0.7,1.5-0.7,1.6c-0.1,1.5-0.7,4.2-1.7,8.2c-0.1,0.1-0.5,1-1.3,2.6c-0.8,1.6-1.7,3.1-2.7,4.4
		s-2,2.4-3.3,3.2v-0.1c0-0.1-0.2-0.3-0.5-0.6c-0.3,0.3-0.5,0.7-0.5,1c0,0-0.1-0.2-0.2-0.4c-0.1-0.2-0.2-0.5-0.3-0.7
		c-0.1-0.2-0.2-0.3-0.3-0.3c-1,0-3.9,2.1-8.7,6.2c-0.6,0.1-1.1,0.3-1.6,0.6c-0.5,0.3-1.3,0.8-2.4,1.4c-1.1,0.7-1.9,1.2-2.6,1.7
		c-0.9,0-2.3,0.2-4.1,0.6l-0.5,0.9c-0.3,0.6-0.8,1.6-1.3,3.1c-0.6,1.4-1,3-1.4,4.6c-0.1,0.6-0.4,1.8-1,3.5c-0.6,1.8-1.5,3.8-2.6,6.1
		c0.1,0.4,0.2,0.8,0.2,1.2c0,0.1,0,0.2,0,0.3c0,0.1,0,0.2,0,0.3v-0.3c0-0.6-0.2-1.6-0.7-2.9c-0.3,0-0.5,1.3-0.7,3.9
		c-0.8,1.4-1.5,3.2-2.1,5.5s-1.3,4.1-1.9,5.3c-0.6,1.2-1.6,1.8-2.9,1.8C469.5,169.7,468.8,168.7,468.8,166.7z M487.6,131.3l0.5,0.6
		c0.3-0.2,0.7-0.4,1-0.6c0.3-0.2,0.8-0.4,1.5-0.7c0.6-0.3,1.2-0.6,1.8-0.9c1.4-1.4,2.1-2.3,2.1-2.6c0-0.2-0.1-0.4-0.2-0.6l-0.3-0.2
		c1.2-1,3.1-2.6,5.8-4.8c0.1,0,0.2-0.1,0.4-0.1c0.2,0,0.4-0.1,0.5-0.1c0.1,0,0.2-0.1,0.4-0.3c0.1-0.1,0.3-0.3,0.4-0.6
		c-0.8-0.4-1.2-0.8-1.2-1.1c1.1-0.5,2.5-1.4,4-2.6c-0.5-0.2-0.8-0.5-0.8-1c0-0.1,0.2-0.3,0.5-0.5c0.3-0.2,0.7-0.8,1.2-1.6
		c0.5-0.8,0.9-2,1.3-3.6c2.1-3.7,3.1-6.4,3.1-8.2c-1-0.7-2-1.3-2.9-1.7c-0.1,0-0.2,0-0.3,0.1c-0.1,0.1-0.2,0.1-0.3,0.1
		c-0.1,0-0.5-0.1-1.3-0.4c-0.8-0.2-1.8-0.5-2.9-0.7c-1.1-0.2-1.9-0.3-2.5-0.3c-0.9,0-1.7,0.3-2.4,1c-2.3,9.7-3.9,16.2-4.8,19.5
		C490.6,122.3,489.1,126.3,487.6,131.3z M506.8,116L506.8,116c0.1,0,0.3,0,0.5-0.1c0.3-0.1,0.5-0.1,0.6-0.1c-0.1,0-0.4,0-0.7,0.1
		C506.9,115.9,506.8,116,506.8,116z"/>
	<path fill="#FFFFFF" d="M519.2,130.6c0-0.1,0-0.1,0.1-0.2c0.1-0.1,0.1-0.1,0.2-0.2c0.1-0.1,0.1-0.3,0.1-0.4c-0.1,0-0.1-0.1,0-0.4
		l0-0.4c0-0.1,0-0.3,0-0.5c0-0.2,0-0.4,0-0.5c0.3-1,0.6-2.3,0.9-3.9c0.3-1.6,0.6-2.6,0.7-3.1c0.1-0.6,0.4-1.4,0.7-2.6
		c0.3-1.1,0.5-1.9,0.6-2.5c0.1-0.1,0.1-0.3,0.1-0.4c0-0.1,0-0.2,0-0.3c0-0.1,0-0.2,0-0.4c0.1-0.2,0.1-0.4,0.2-0.6
		c0.1-0.2,0.1-0.4,0.2-0.6c0-0.1,0-0.1,0.1-0.1v0.1c0.1-0.2,0.2-0.5,0.3-0.8c0.1-0.3,0.2-0.4,0.2-0.5c0-0.1,0-0.2,0-0.3
		c0-0.1,0-0.2,0-0.2c0.2-0.8,0.3-1.5,0.3-2.1c0-0.3,0.1-0.8,0.1-1.4c0-0.7,0.1-1.1,0.1-1.5c0.3-1.7,0.5-2.7,0.5-3
		c0.1-0.9,0.2-1.6,0.3-2.1c0.1-0.9,0.4-1.7,0.9-2.5c0.5-1,1-1.9,1.8-2.6c0,0,0-0.1,0-0.1c0,0,0-0.1,0-0.1c0-0.1,0-0.1,0-0.2
		c0,0,0-0.1,0-0.1c0,0,0.4-0.5,1.1-1.3c0.1-0.2,0.3-0.4,0.4-0.6c0.1-0.2,0.3-0.5,0.6-0.7c0.3-0.2,0.5-0.3,0.6-0.3
		c0.1-0.1,0.1-0.1,0.2-0.2c0.1-0.1,0.2-0.2,0.4-0.2c0.1,0,0.3,0,0.4,0.1c0.1,0.1,0.3,0.1,0.5,0.1c0.1,0,0.3,0,0.5-0.1
		c0.2-0.1,0.4-0.1,0.5,0c0.1,0,0.3,0.2,0.5,0.5c0,0.1,0.1,0.1,0.1,0.2c0.1,0.1,0.1,0.2,0.2,0.2c0.1,0.1,0.2,0.2,0.5,0.3
		c0.3,0.1,0.5,0.2,0.6,0.3c0.1,0.1,0.3,0.3,0.5,0.5c0.2,0.3,0.4,0.5,0.5,0.6c0.8,0.8,1.4,1.3,1.6,1.5c0.4,0.3,0.8,0.4,1.3,0.4
		c0.1,0,0.8-0.3,2-0.9c0.1,0,0.6-0.3,1.6-0.8c1-0.5,1.8-0.9,2.5-1.2c2.6-1.2,4.3-1.9,5-2.1c1.3-0.3,2.5-0.5,3.6-0.5
		c0.2,0,0.6,0.1,1.1,0.2c0.6,0.1,1,0.3,1.1,0.4c0.5,0.3,0.9,0.6,1.1,0.9c0.1,0.1,0.1,0.6,0.1,1.3c-0.1,0.4-0.6,0.6-1.5,0.8
		c-0.2,0.1-0.7,0.3-1.5,0.5c-0.7,0.2-1.4,0.4-1.9,0.6c-0.3,0.2-1,0.6-2.1,1.2c-0.3,0.2-0.6,0.4-1,0.7c-0.3,0.3-0.7,0.5-1.1,0.7
		c-1.8,0.7-3.3,1.5-4.4,2.3c-2.7,2-5.5,4.9-8.3,8.6c-0.6,0.7-1.2,1.6-1.7,2.9c-0.4,0.8-0.8,2-1.2,3.5c0,0.1-0.1,0.2-0.2,0.3
		c-0.1,0.2-0.2,0.4-0.3,0.7c-0.1,0.3-0.2,0.6-0.3,0.9c-0.2,0.7-0.5,2.2-1,4.5c-0.1,0.7-0.4,1.7-0.8,3c-0.2,0.7-0.4,1.5-0.8,2.5
		c0,0.1-0.1,0.2-0.2,0.5c0,0,0,0.1,0,0.2c0,0.1,0,0.2,0,0.3c0,0.1,0,0.3,0,0.4c0,0.1,0,0.3,0,0.5c0,0.1,0,0.3,0.1,0.4
		c0.1,0.1,0.1,0.3,0.1,0.4c-0.1,0.3-0.1,0.6-0.2,0.8c0,0.2-0.1,0.4-0.2,0.6c-0.1,0.2-0.2,0.5-0.2,0.8c0,0.1-0.2,0.8-0.5,2.1
		c0,0.1-0.1,0.1-0.1,0.1c-0.1,0-0.1,0.1-0.1,0.1c0,0,0,0.1,0,0.2c0,0.1,0,0.2,0,0.2c0,0-0.1,0.1-0.1,0c-0.2-0.1-0.4-0.2-0.6-0.4
		c-0.1-0.2-0.3-0.3-0.4-0.4c-0.1-0.1-0.2-0.2-0.3-0.4c-0.1-0.2-0.2-0.3-0.2-0.3c0,0-0.2,0-0.4,0c-0.2,0.1-0.3,0.3-0.4,0.4
		c0,0.1-0.1,0.3-0.1,0.5c0,0.2-0.1,0.4-0.1,0.6c0,0.1-0.1,0.4-0.1,0.7c0,0.3-0.1,0.6-0.3,0.8c0,0.1-0.1,0.2-0.3,0.1
		c-0.2,0-0.3-0.1-0.4,0s-0.1,0.1-0.2,0.1l-0.2,0.1c0,0-0.1,0-0.2,0c-0.1,0-0.2,0-0.2-0.1c-0.1-0.1-0.1-0.1-0.2-0.2
		c0,0-0.1-0.1-0.2-0.1c-0.1,0-0.2-0.1-0.3-0.1c-0.1,0-0.1-0.1-0.1-0.1c0,0,0-0.1,0-0.1c0-0.1,0-0.1,0-0.1c0,0-0.1-0.1-0.2-0.3
		c-0.1-0.2-0.4-0.7-0.9-1.4c-0.5-0.8-0.8-1.3-0.8-1.4c-0.1-0.1-0.1-0.2-0.1-0.3c0-0.1,0-0.2,0-0.3c0-0.1-0.1-0.2-0.2-0.3
		c-0.1-0.1-0.1-0.3-0.1-0.4c0,0,0-0.1,0-0.1c0,0,0-0.1,0-0.2c0-0.1,0-0.2-0.1-0.3v-0.2c0,0-0.1,0-0.1,0c-0.1,0-0.1,0-0.1,0l-0.2-0.6
		c0-0.1-0.1-0.2-0.1-0.3C519.3,130.8,519.2,130.7,519.2,130.6z"/>
	<path fill="#FFFFFF" d="M547,127.1c0-0.4,0.1-1.3,0.3-2.8c0.2-1.5,0.3-2.4,0.3-2.8c0.2,0,0.5-0.1,0.9-0.3c0.3-0.1,0.7-0.4,1.1-0.7
		c0.4-0.3,0.6-0.7,0.6-1.1c0-0.1-0.1-0.6-0.3-1.3c-0.2-0.7-0.3-1.1-0.3-1.2c0.6-0.5,1.1-1.1,1.6-1.6c0.4-0.5,0.8-1,1.1-1.4
		c0.3-0.4,0.7-1.2,1.4-2.4c0.7-1.2,1.4-2.3,2-3.4c0.9-1.4,3.6-4.3,8.2-8.8c4.6-4.5,7.2-6.8,7.9-6.8c0.1,0,0.4,0,0.9,0.1
		c0.4,0.1,0.7,0.1,0.9,0.1c0.5,0,1.4-0.9,2.7-2.8c0,0,0.7,0.5,2.1,1.6l2.9,0.7c1,0.5,2.2,1,3.4,1.5c1.5,0,2.7,0.4,3.7,1.3
		c1,0.9,1.7,2.1,2.2,3.7c0.5,1.6,0.8,3.2,0.9,4.7c0.2,1.5,0.2,3.3,0.2,5.3c0,3.4-0.7,6.5-2.1,9.3c-0.4,1.6-0.8,3-1.4,4.2
		c-0.6,1.2-1.3,2.4-2.2,3.4c-0.9,1.1-2.2,2.2-3.7,3.3c-1.6,1.1-3.3,2.2-5.2,3.3c-1.9,1.1-4.4,2.4-7.4,4c-0.1,0.1-1,0.2-2.7,0.4
		c-1.9,2.2-4.6,3.3-8,3.3c-1.7,0-2.8-0.2-3.2-0.5l-3.7-3h-0.3c-1.2,0-2.1-0.5-2.8-1.5c-0.6-1-1.1-2.2-1.3-3.4
		c-0.2-1.3-0.3-1.9-0.4-2c0.4-0.6,0.5-1,0.5-1.2c0-0.1-0.1-0.4-0.3-0.7C547.1,127.4,547,127.2,547,127.1z M555.3,128.2
		c0,0.6,0.3,1.2,0.9,1.8c0.6,0.6,1.2,0.9,1.7,0.9c3.7,0,7.9-1.6,12.5-4.7c0.9-0.2,2.2-0.8,3.8-1.6c0.4-0.4,1.4-2.2,3.1-5.5
		c0-0.1,0.4-1.3,1-3.8c0.6-2.4,1.1-3.8,1.5-4c0-2.3,0.4-3.6,1.2-3.9v-1.1c-0.4-0.1-0.7-0.3-1.1-0.7c0.2-0.3,0.3-0.7,0.3-1.1
		c0-0.7-0.2-1.4-0.6-2.2c-0.4-0.7-0.8-1.1-1.3-1.1c-0.9,0-3,1.5-6.3,4.4c-1.5,1.3-2.9,2.6-4.1,3.8c-1.2,1.2-2.4,2.5-3.5,3.7
		c-1.1,1.3-1.9,2.2-2.5,2.9c-0.6,0.7-1.4,1.7-2.5,3.2c-1.1,1.4-1.8,2.3-2.1,2.7c-0.2,0.2-0.6,1.2-1.2,3
		C555.6,126.7,555.3,127.8,555.3,128.2z"/>
	<path fill="#FFFFFF" d="M592.9,125.8c0-0.4,0-0.7,0-1c0-0.6,0-1.1,0-1.5c0-0.6,0.1-1.4,0.2-2.5c0.1-1.1,0.2-2.2,0.5-3.2
		c0.3-1,0.6-2.1,1-3.1c0.8-0.6,1.4-1.3,1.9-2.2c0.5-0.8,1.1-2.5,1.8-4.9c0.2-0.1,0.4-0.4,0.6-0.9c0.2-0.5,0.6-1.3,1.2-2.5
		c0.6-1.2,1.4-2.5,2.3-3.9c0-0.6,0.7-2.2,2-4.8c1.3-2.6,2.3-4,3-4c0.7,0,1.2,0.5,1.6,1.5c0.4,1,0.6,2,0.6,2.9c0,0.2-0.1,0.7-0.2,1.6
		c-0.1,0.9-0.2,1.4-0.2,1.6c0,0.1,0,0.2,0,0.5c0,0.3,0,0.6-0.1,1.1c0,0.5-0.1,1-0.1,1.5c0.4,0.6,0.6,1.4,0.7,2.4
		c-0.8,1.5-1.9,4-3.2,7.4c-0.4,0.2-0.6,0.3-0.9,0.4c0.1,0.4,0.2,0.7,0.2,0.9c0,0.3-0.4,1.2-1.2,2.7c-0.8,1.6-1.6,3.4-2.4,5.5
		c-0.8,2.1-1.2,3.9-1.2,5.5c0,0.1,0.4,0.4,1.2,0.8c0.8,0.4,1.3,0.6,1.3,0.7h0.6c0.4-0.4,1.5-1.1,3.3-1.9c0.5-0.3,1-0.5,1.4-0.9
		c0.4-0.3,0.7-0.6,1-0.8c0.3-0.2,0.6-0.5,0.9-0.9c0.3-0.4,0.5-0.7,0.7-0.9c0.1-0.2,0.3-0.5,0.6-1c0.2-0.5,0.4-0.8,0.5-0.9
		c0.1-0.2,0.2-0.5,0.5-1.1c0.2-0.6,0.4-0.9,0.5-1.1l7.1-16.7c0.1,0,0.4,0,0.8-0.1c0.4-0.1,0.7-0.1,0.8-0.1c0.1,0,0.8,0.5,2.1,1.4
		c1.3,0.9,2.1,1.4,2.4,1.4c0.4,0,0.7-0.1,0.8-0.2c0.2,0.2,0.5,0.8,0.8,1.8c0.3,1,0.5,1.7,0.5,2.1c0,0.4-0.3,2.4-0.9,5.9l-1,5.7
		c0,1.1,0.5,1.6,1.6,1.6c0-0.1,1.5-0.6,4.4-1.6c0.3,1.4,0.5,2.4,0.5,3.2c0-0.1,0,0-0.1,0.1c0,0,0,0.1-0.1,0.2
		c-1.1,2.7-2.4,4.1-3.9,4.1c-1.2,0-2.9-0.3-5.3-1c-0.4-0.1-1-0.8-1.9-2.1c-0.9-1.3-1.5-2-1.6-2c-0.3,0-0.6,0.2-0.9,0.6
		c-3.2,6-5.8,9.9-7.7,11.6c-0.1,0.1-1.4,0.5-3.7,1.4c-2.3,0.8-3.5,1.3-3.6,1.3c-0.9,0-2.5-0.4-5-1.2c-0.3-0.7-1.5-2.1-3.5-4.3
		c-2-2.2-3-3.6-3-4.2C592.9,127.6,592.9,127,592.9,125.8z"/>
	<path fill="#FFFFFF" d="M633.6,129.8c0-2.8,0.8-4.9,2.3-6.2c0.3-2.3,2.3-6,6.1-10.9c0.1-0.1,0.3-0.1,0.5-0.2
		c0.3-0.1,0.5-0.2,0.7-0.3c0.2-0.1,0.5-0.5,0.9-1.1c0.4-0.6,0.8-1.4,1.3-2.4c0.6-0.3,1.1-0.6,1.6-0.9c0.4-0.4,0.8-0.7,1.1-1.2
		c0.3-0.4,0.8-1.1,1.6-2c0.8-0.9,1.7-1.8,2.7-2.8c1-0.5,2.4-1.7,4.2-3.6c-0.3,0-0.4,0-0.4-0.1c0-0.2,0.9-0.5,2.6-0.9
		c1.8-0.5,2.7-0.7,2.9-0.7c0.8,0,2.1,0.2,3.9,0.7c0.5,0.5,1,0.8,1.7,1.1c0.7,0.3,1.9,0.6,3.8,1c0.2-0.4,0.7-1.6,1.7-3.8
		c0.9-2.1,2.4-5.8,4.4-10.9c0-0.2,0.1-0.6,0.3-1.4c0.2-0.7,0.3-1.4,0.5-1.9c0.1-0.5,0.3-1,0.6-1.7c0.2-0.6,0.5-1.1,0.8-1.4
		c0.3-0.3,0.7-0.5,1.1-0.5c0.1,0,0.5,0.1,1.2,0.4c0.7,0.3,1.1,0.4,1.2,0.4c0.3,0,0.5-0.1,0.6-0.2c0.4,0.7,1.1,1.4,2.1,2
		c1,0.7,1.8,1,2.4,1h0.1c-0.2,1.8-0.4,3.1-0.6,3.8c-0.1,0.7-0.6,2.1-1.5,4.2s-2.2,5.1-4.1,9.1c-1.9,4.1-3.4,7.1-4.5,9.1
		c-1.1,2-2.2,3.7-3.1,5.1c-0.9,1.4-1.8,2.8-2.6,4.2c-0.1,1-0.4,2.2-0.7,3.3c-0.3,1.2-0.6,2.1-0.9,2.9c-0.3,0.7-0.4,1.1-0.4,1.2
		c0,3.4,1.7,5.1,5,5.1c0.2,0,0.5,0,1.1-0.1c0.6-0.1,0.9-0.1,1.1-0.1c0.7,0,1.3,0.1,1.6,0.4c0.6,0,1.2-0.2,1.7-0.7
		c0,0.6,0.1,1.5,0.4,2.7c-0.3-0.1-0.5-0.3-0.7-0.4c0,0.2-0.1,0.5-0.3,0.8c-1.6,0.6-2.9,1.1-4,1.4c-1,0.3-1.7,0.5-2,0.5
		c-0.3,0-0.8,0-1.4,0c-0.6,0-1-0.1-1.3-0.1c-0.6,0-1-0.1-1.4-0.2c-0.4-0.2-0.7-0.4-1-0.6c-0.3-0.2-0.6-0.7-1-1.4
		c-0.4-0.7-0.7-1.3-1-1.9c-0.3-0.6-0.7-1.5-1.3-2.9c-0.6-1.3-1.2-2.6-1.7-3.7c-0.1-0.1-0.2-0.1-0.5-0.1c-0.4,0-0.7,0.2-1,0.5
		c-0.4,0.4-1.3,1.2-2.6,2.4c-1.3,1.2-2.3,2.1-3,2.8c-0.7,0.7-1.7,1.5-2.9,2.5c-1.2,1-2.4,1.9-3.6,2.7c-1.2,0.8-2.5,1.6-3.8,2.3
		c-0.1,0-0.2,0-0.4,0c-0.2,0-0.5,0.1-0.8,0.4c-0.3,0.3-0.8,0.8-1.4,1.6h-0.5h-0.3c-0.2,0-0.4,0-0.6,0c-0.2,0-0.4,0-0.7,0
		c-0.3,0-0.6,0-0.8-0.1c-0.2,0-0.5-0.1-0.8-0.1c-0.3-0.1-0.6-0.1-0.9-0.2c-0.3-0.1-0.5-0.2-0.9-0.4c-0.3-0.2-0.6-0.3-0.8-0.5
		c-0.2-0.2-0.4-0.4-0.7-0.7c-0.2-0.3-0.4-0.6-0.5-0.9C634.5,132.9,633.6,131.1,633.6,129.8z M638.9,132.3c0,0.2,0.1,0.4,0.2,0.7
		l0.2,0.4h0.6c0.7-0.3,1.4-0.6,2.1-0.8c0.7-0.3,1.1-0.5,1.5-0.6c0.3-0.1,0.7-0.2,0.9-0.3c0.3-0.1,0.6-0.2,0.9-0.4
		c0.3-0.2,0.5-0.3,0.8-0.5c0.2-0.1,0.6-0.4,1.1-0.8c0.6-0.4,1.1-0.8,1.5-1.2c0.5-0.4,1.2-1,2.3-1.8c1.1-0.9,2.2-1.7,3.3-2.5
		c0.3-0.4,0.7-0.9,1.2-1.5l1.5-1c0.2-0.4,0.5-0.8,1-1.3c0.6-0.2,1.1-0.5,1.5-0.9c0.4-0.4,1-1.1,1.8-2.1c0.8-1,1.6-1.9,2.4-2.8
		c0.9-0.5,1.6-1.2,2.1-2.2c0.5-1,0.9-2.8,1.3-5.3c0-0.1,0.1-0.4,0.3-1c0.2-0.5,0.4-1,0.5-1.4c0.2-0.4,0.2-0.7,0.2-0.7v-0.7
		c-0.7-0.3-1-0.5-1.1-0.5c-0.4,0-1,0.2-1.6,0.6l-1.2,0.8c-1.4,0.5-4.7,3.1-9.9,7.7c-0.4,0.4-0.9,0.9-1.5,1.7
		c-0.6,0.7-1.1,1.2-1.6,1.5c-2.6,2.6-4.9,5.2-6.9,7.8c-2,2.7-3.4,4.7-4.3,6.2C639.3,130.9,638.9,131.9,638.9,132.3z"/>
	<path fill="#FFFFFF" d="M683,126.7l0.2-0.6h0.2v-0.5l0.3-0.5l-0.2-0.7l0.4-0.4h0.5l-0.3-0.7l0.5-0.3l-0.4-1.3l0.4-0.1l0.7,0.1
		l0.2-0.1v-0.4l0.7-0.9l0.7-0.5l0.9-0.6l3,1.3h0.5l0.2-0.2v-0.5l1.1-0.2l-0.4,0.9l0.4,0.5l0.1,0.2l0.2-0.2v-0.5h0.4l0.7,1.1l0.5-0.4
		l0.4,0.2l1.2,2.4l0.6-0.5l0.3,0.2l0.4,0.5l0.9,1.1l0.1,0.2l-0.1,0.7l0.3,0.7h-0.3v0.3h0.1l0.4,1.3l-0.2,1.6l0.2,0.7l-0.5-0.2v0.2
		l0.1,0.5l-1.2,0.7l-1.6,0.4l-0.9,1.2l-1.8-0.2h-0.3l-2.5-0.8l-2.5-1.6l-0.7-0.9l-0.9-0.2l0.2-0.3l-0.5-0.6v-0.7l-1.6-0.9L683,126.7
		z"/>
</g>
</svg>
